<?xml version="1.0" encoding="UTF-8"?><svg id="Layer_1" xmlns="http://www.w3.org/2000/svg" viewBox="0 0 205.379 180"><defs><style>.cls-1{fill:#0d5e68;stroke-width:0px;}</style></defs><path class="cls-1" d="M203.683,93.178c0-12.519,0-17.366-.635-23.489-1.584-15.345-7.272-28.172-16.909-38.126-9.143-9.443-21.521-16.777-36.793-21.8-13.968-4.598-30.102-7.026-46.655-7.026s-32.684,2.428-46.652,7.023c-10.768,3.541-20.089,8.237-27.858,14.006-3.231,2.398-6.202,4.977-8.883,7.742-2.379,2.3-4.928,5.655-7.575,9.97-4.704,7.669-3.733,17.601,2.382,24.138,4.89,5.226,15.004,12.795,44.035,19.815,13.392,3.239,28.418,5.983,43.797,8.759,15.528,2.801,31.289,5.647,45.081,9.113-.214,3.001-.627,5.061-1.419,5.883-1.235,1.276-3.49,2.914-6.78,4.555-7.096,3.536-19.002,7.091-36.122,7.091-24.874,0-39.007-7.618-42.908-11.646-1.211-1.252-1.536-5.388-1.622-11.36-2.906-.684-5.758-1.395-8.54-2.133.059,10.489.519,15.782,4.042,19.421,3.582,3.698,9.797,7.129,17.502,9.656,9.143,2.998,20,4.585,31.524,4.585s22.379-1.584,31.521-4.585c6.653-2.182,12.192-5.036,15.888-8.159.584-.492,1.127-.992,1.617-1.498,2.19-2.26,3.195-5.164,3.658-9.551,2.506.73,4.92,1.487,7.223,2.276-.484,3.398-1.568,7.634-4.463,11.238-.333.414-.681.822-1.062,1.219-7.726,7.98-25.99,16.51-54.378,16.51s-46.654-8.529-54.381-16.51c-4.288-4.428-5.326-10.189-5.731-14.136-.354-3.425-.408-7.405-.416-12.587-2.893-.806-8.137-2.687-8.518-2.828,0,6.856.003,11.827.462,16.288.538,5.207,1.96,12.86,8.086,19.186,5.042,5.207,12.987,9.889,22.379,13.187,11.178,3.925,23.773,5.915,38.123,5.915s26.942-1.99,38.12-5.915c9.392-3.298,17.339-7.98,22.379-13.187,1.236-1.276,2.279-2.609,3.163-3.963,2.49-3.812,3.712-7.802,4.363-11.287,2.508,1.098,4.815,2.252,6.888,3.477-.795,3.322-2.182,7.339-4.666,11.322-1.192,1.914-2.636,3.82-4.396,5.637-12.957,13.382-37.66,21.37-65.854,21.37s-52.899-7.988-65.854-21.37c-8.629-8.913-9.77-19.972-10.146-23.606-.503-4.871-.503-11.554-.503-20.032-3.09-1.363-5.92-2.79-8.505-4.293,0,15.758-.014,19.891.533,25.198.449,4.361,1.819,17.626,12.498,28.656,14.528,15.006,41.432,23.963,71.974,23.963s57.444-8.959,71.971-23.966c.914-.943,1.754-1.906,2.538-2.876,3.928-4.866,6.272-9.962,7.694-14.42,3.825,3.885,4.255,9.8,1.473,14.26-2.006,3.214-4.133,5.972-6.323,8.191l-.027.027c-.9.93-1.844,1.833-2.817,2.717-7.867,7.151-18.107,12.835-30.521,16.918-13.122,4.317-28.334,6.599-43.992,6.599s-30.869-2.282-43.992-6.596c-13.947-4.588-25.163-11.195-33.338-19.635-8.278-8.548-13.173-19.678-14.558-33.076-.587-5.688-.76-16.331-.489-30.95-.419-.335-4.552-3.501-8.037-8.254-.727,5.982-.573,20.375-.573,20.375,0,7.588,0,13.581.633,19.705,1.584,15.344,7.272,28.172,16.91,38.125,9.143,9.443,21.522,16.777,36.795,21.803,13.971,4.595,30.102,7.023,46.654,7.023s32.684-2.428,46.652-7.023c10.768-3.541,20.089-8.237,27.858-14.006,3.247-2.409,6.228-5.001,8.921-7.783,2.622-2.663,5.136-5.91,7.469-9.648,4.812-7.71,3.901-17.728-2.238-24.338-6.074-6.539-17.564-13.449-44.113-19.897-13.39-3.252-28.418-5.983-43.797-8.759-15.528-2.8-31.289-5.647-45.081-9.113.214-3,.627-5.061,1.419-5.882,1.236-1.276,3.49-2.914,6.78-4.555,7.096-3.536,19.034-7.091,36.125-7.091,25.017,0,39.004,7.618,42.905,11.646,1.211,1.252,1.536,5.388,1.622,11.359,2.906.684,5.758,1.395,8.54,2.133-.059-10.489-.519-15.782-4.042-19.421-3.582-3.698-9.797-7.129-17.502-9.656-9.143-2.998-20.043-4.585-31.524-4.585s-22.378,1.584-31.521,4.585c-6.653,2.182-12.192,5.036-15.888,8.159-.584.492-1.127.992-1.617,1.498-2.19,2.26-3.195,5.163-3.657,9.548-2.506-.73-4.92-1.487-7.224-2.279.484-3.398,1.568-7.634,4.463-11.238.333-.413.681-.822,1.063-1.219,7.726-7.98,26.071-16.509,54.378-16.509s46.654,8.529,54.381,16.509c4.288,4.428,5.326,10.189,5.731,14.136.354,3.425.408,7.405.416,12.587,2.76.757,8.137,2.687,8.518,2.828,0-6.856-.003-11.827-.462-16.288-.538-5.207-1.96-12.86-8.086-19.186-5.042-5.207-12.987-9.889-22.379-13.187-11.178-3.925-24.006-5.915-38.12-5.915s-26.942,1.99-38.12,5.915c-9.392,3.298-17.339,7.98-22.379,13.187-1.235,1.276-2.279,2.609-3.163,3.963-2.49,3.812-3.712,7.802-4.363,11.286-2.506-1.097-4.815-2.252-6.888-3.474.795-3.322,2.182-7.34,4.666-11.322,1.192-1.914,2.636-3.82,4.396-5.636,12.957-13.382,37.574-21.37,65.854-21.37s52.899,7.988,65.854,21.37c8.629,8.913,9.77,19.972,10.145,23.605.503,4.872.503,9.921.503,20.032,3.09,1.363,5.92,2.79,8.504,4.293,0-16.558.014-19.891-.532-25.198-.449-4.361-1.819-17.626-12.498-28.656-14.528-15.006-41.434-23.963-71.974-23.963s-57.444,8.959-71.971,23.965c-.914.943-1.754,1.906-2.538,2.876-3.928,4.866-6.272,9.965-7.694,14.42-3.725-3.828-4.215-9.621-1.503-14.033,3.917-6.374,6.542-8.726,9.2-11.162,7.834-7.185,18.107-12.835,30.518-16.918,13.122-4.317,28.334-6.599,43.995-6.599s30.869,2.282,43.989,6.596c13.947,4.588,25.163,11.195,33.335,19.635,8.278,8.548,13.173,19.678,14.558,33.075.587,5.688.63,8.708.535,30.986.406.324,4.828,3.825,7.999,8.229.592-5.252.573-10.527.573-16.599h-.005Z"/></svg>